<?xml version="1.0" encoding="utf-8"?>
<!-- Generator: Adobe Illustrator 19.1.0, SVG Export Plug-In . SVG Version: 6.00 Build 0)  -->
<svg version="1.1" id="Layer_1" xmlns="http://www.w3.org/2000/svg" xmlns:xlink="http://www.w3.org/1999/xlink" x="0px" y="0px"
	 width="1000px" height="1000px" viewBox="0 0 1000 1000" style="enable-background:new 0 0 1000 1000;" xml:space="preserve">
<path d="M856.6,630.4c0.7-1.2,1.4-2.5,2.1-3.7c5.7-10.4,10.8-20.9,15.3-31.6c-0.1,0.5-0.1,1.1-0.2,1.6c59.1,11.4,89.8-36,112.7-86.1
	c-39.3,5.4-78.2,13.8-98.6,44.1c3.7-13.6,6.5-27.4,8.5-41.4c57.2-6.3,74.9-59.1,84.5-112.6c-33.9,14.3-66.8,31.1-81.4,60.9
	c0-3.2-0.1-6.4-0.2-9.6c-0.5-13-1.7-26.2-3.7-39.5c53.6-23.3,55.3-79.5,49.2-133.7c-27.9,23.8-54.2,49.5-60.1,81.9
	c-4.8-17.5-10.7-35.2-17.7-53.1c49.8-34.4,40-90.5,22.7-142.9c-24,31.4-45.8,64.7-41.5,100.2c-3.7-7.6-7.5-15.2-11.6-22.8
	c2.5-55.3-42.3-82.9-89.2-103.2c9.2,53,23.5,104.9,81.9,111.9c6.2,11.9,12,23.7,17.2,35.4c-21.8-21.2-55.3-29.7-88.9-34.7
	c22,49.7,48.9,97.1,109.2,86.8c7.7,23.5,13.4,46.6,17,69.3c-12.9-25.7-38.5-45.6-65.4-62.9c1,55.7,7.5,111.3,70,125.6
	c0.1-0.3,0.2-0.6,0.3-0.9c-0.2,27.1-3.6,53.5-10.2,78.9c1.2-37.1-24.3-69.9-52.7-99c-11,54.2-16.7,109.4,39.8,138
	c-4.7,11.5-10,22.9-16.1,34c-4.9,8.9-10.2,17.6-15.9,26.1c8.9-38.9-13.8-76.7-40.2-110.8c-16.4,50.9-27.9,103.4,19.6,138.6
	c-14.9,18.2-31.5,35.1-49.4,50.7c22.8-38.6,6.3-83.8-15.1-125.5c-25.5,47.4-46.5,97.4-4.2,141.3c-17.9,13.9-36.8,26.5-56.5,38
	c27.2-29.4,25.2-74.5,18.2-118c-39,36.7-74.5,77.5-47,133.6c-23.3,11.8-47.4,21.9-71.6,30.3c22.8-19,36-51.1,46-83.9
	c-51.7,14.6-101.8,36.7-100.4,102c-0.1,0-0.2,0-0.3,0.1c-17.6,4.3-35.9,4.3-53.4,0l-0.3-0.1c1.4-65.2-48.8-87.3-100.4-102
	c10,32.8,23.1,64.9,46,83.9c-24.3-8.4-48.3-18.6-71.6-30.3c27.5-56.1-8-96.9-47-133.6c-7,43.6-9,88.6,18.2,118
	c-19.7-11.4-38.6-24.1-56.5-38c42.3-44,21.4-94-4.2-141.3c-21.4,41.7-37.9,86.9-15.1,125.5c-17.9-15.6-34.5-32.5-49.4-50.7
	c47.6-35.1,36.1-87.6,19.6-138.6c-26.4,34.1-49.1,71.9-40.2,110.8c-5.7-8.5-11-17.2-15.9-26.1c-6.1-11.1-11.4-22.4-16.1-34
	c56.5-28.6,50.8-83.8,39.8-138c-28.4,29.1-53.9,61.9-52.7,99c-6.6-25.5-10-51.8-10.2-78.9c0.1,0.3,0.2,0.6,0.3,0.9
	c62.5-14.3,69-69.9,70-125.6c-26.9,17.3-52.5,37.2-65.4,62.9c3.6-22.7,9.3-45.8,17-69.3c60.3,10.3,87.1-37.1,109.2-86.8
	c-33.6,5-67.1,13.5-88.9,34.7c5.3-11.7,11-23.5,17.2-35.4c58.4-7,72.7-58.9,81.9-111.9c-46.9,20.2-91.7,47.9-89.2,103.2
	c-4.1,7.6-7.9,15.2-11.6,22.8c4.3-35.5-17.4-68.8-41.5-100.2c-17.3,52.4-27.1,108.5,22.7,142.9c-7,17.9-12.9,35.6-17.7,53.1
	c-5.8-32.4-32.1-58.1-60.1-81.9c-6.1,54.3-4.3,110.4,49.2,133.7c-1.9,13.3-3.1,26.5-3.7,39.5c-0.1,3.2-0.2,6.4-0.2,9.6
	c-14.6-29.8-47.5-46.6-81.4-60.9C41.1,454.1,58.7,507,116,513.2c1.9,14,4.8,27.8,8.5,41.4c-20.5-30.3-59.3-38.7-98.6-44.1
	c22.9,50.1,53.7,97.5,112.7,86.1c-0.1-0.6-0.1-1.1-0.2-1.6c4.5,10.7,9.6,21.3,15.3,31.6c0.7,1.3,1.4,2.5,2.1,3.7
	c-29.3-26.6-71.2-21.3-112.4-12.5c37.2,39.2,80.8,73.2,132.4,43.9c7.8,11,16.3,21.7,25.5,32.1c-27.1-10.4-59.9-4.6-92.1,3.4
	c38.7,38.3,83.8,71.2,135,38.8c8.9,7.6,18.2,15,27.8,22.1c-36.9-13.3-73.8,8.1-108.8,32.3c49,21.8,102,36.3,139.1-11.8
	c13.8,8.7,28.2,16.9,43.2,24.6c-35.3-1.7-65.5,24.4-93.7,52.8c51,12.2,104.6,16.7,133.2-34.4c16,6.7,32.3,12.8,48.8,18.1
	c-33.2,3-60.3,30-85.5,58.9c48.8,8.1,99.4,7.2,126.2-37.1c2.1-0.3,61.5-0.3,63.6,0c26.7,44.4,77.4,45.3,126.2,37.1
	c-25.1-28.9-52.3-55.9-85.5-58.9c16.5-5.3,32.8-11.4,48.8-18.1c28.6,51,82.2,46.6,133.2,34.4c-28.2-28.3-58.4-54.4-93.7-52.8
	c15-7.7,29.4-15.9,43.2-24.6c37,48.1,90.1,33.6,139.1,11.8c-35-24.3-71.9-45.6-108.8-32.3c9.7-7.1,19-14.5,27.8-22.1
	c51.2,32.4,96.3-0.4,135-38.8c-32.2-8-65-13.8-92.1-3.4c9.2-10.4,17.7-21.1,25.5-32.1c51.5,29.3,95.1-4.7,132.4-43.9
	C927.8,609.1,885.9,603.8,856.6,630.4z"/>
</svg>
